<?xml version="1.0" encoding="utf-8"?>
<svg xmlns="http://www.w3.org/2000/svg" data-name="Laag 1" id="Laag_1" viewBox="0 0 396 72">
  <defs>
    <style>
      .cls-1 {
        fill: #2e3192;
      }

      .cls-1, .cls-2, .cls-3 {
        stroke-width: 0px;
      }

      .cls-2 {
        fill: #d9e021;
      }

      .cls-3 {
        fill: #fff;
      }
    </style>
  </defs>
  <g>
    <path class="cls-1" d="M113.9,14.9c13.02,0,21.58,8.44,21.58,21.03s-8.56,21.16-21.58,21.16h-16.58c-.78,0-1.33-.6-1.33-1.39V16.23c0-.72.54-1.33,1.33-1.33h16.58ZM113.9,48.78c7.23,0,12.12-5.61,12.12-12.84s-4.88-12.72-12.12-12.72h-8.86v25.55h8.86Z"/>
    <path class="cls-1" d="M142.03,57.1c-.78,0-1.33-.6-1.33-1.39V16.23c0-.72.54-1.33,1.33-1.33h6.33c.78,0,1.39.6,1.39,1.33v39.48c0,.78-.6,1.39-1.39,1.39h-6.33Z"/>
    <path class="cls-1" d="M186.57,19.06c1.69,1.51,1.02,2.65.36,3.31l-2.95,3.07c-.9.9-2.05,1.03-3.44.06-2.59-1.99-5.42-3.5-8.8-3.5-3.62,0-6.45,1.51-6.45,4.34,0,1.69,1.08,3.07,4.28,3.98l8.08,1.99c6.81,1.81,11.57,5.18,11.57,12.23,0,6.51-5.54,13.38-17.12,13.38-8.2,0-13.68-3.07-16.57-6.15-1.14-1.15-1.39-2.65-.12-3.68l3.86-3.01c1.2-.9,2.17-.42,3.07.48,2.35,2.23,5.49,4.34,10.13,4.34s6.87-2.23,6.87-4.46c0-2.65-2.11-3.98-6.03-4.94l-7.29-1.81c-6.51-1.63-10.43-5.61-10.43-11.69,0-7.53,6.93-12.96,16.33-12.96,6.93,0,12.05,2.53,14.65,5Z"/>
    <path class="cls-1" d="M191.42,36c0-12.36,9.82-21.94,22.36-21.94,9.22,0,17.3,4.82,20.19,13.02.18.48.3,1.14-.66,1.39l-6.87,1.81c-.96.24-1.2-.42-1.39-.84-2.11-4.04-5.67-6.99-11.21-6.99-7.59,0-13.02,6.03-13.02,13.56s5.43,13.56,13.02,13.56c5.54,0,9.1-2.95,11.21-6.99.18-.42.42-1.09,1.39-.84l6.87,1.81c.96.24.84.9.66,1.39-2.89,8.2-10.97,13.02-20.19,13.02-12.54,0-22.36-9.58-22.36-21.94Z"/>
    <path class="cls-1" d="M258.22,57.94c-12.48,0-22.36-9.58-22.36-21.94s9.88-21.94,22.36-21.94,22.36,9.58,22.36,21.94-9.82,21.94-22.36,21.94ZM258.22,22.44c-7.53,0-12.96,6.03-12.96,13.56s5.43,13.56,12.96,13.56,12.96-6.03,12.96-13.56-5.42-13.56-12.96-13.56Z"/>
    <path class="cls-1" d="M296.08,57.1c-.66,0-1.45-.36-1.75-1.33l-13.62-38.76c-.48-1.39.18-2.11,1.2-2.11h7.35c.66,0,1.15.42,1.39,1.2l10.25,31.22h.24l10.13-31.22c.24-.66.66-1.2,1.39-1.2h6.93c1.02,0,1.57.78,1.14,2.05l-13.62,38.82c-.3.96-1.08,1.33-1.75,1.33h-9.28Z"/>
    <path class="cls-1" d="M327.86,55.89c-.24.66-.66,1.2-1.39,1.2h-6.75c-.96,0-1.57-.78-1.08-2.05l13.62-38.82c.3-.96,1.08-1.33,1.75-1.33h9.52c.66,0,1.33.36,1.75,1.33l13.68,38.76c.42,1.39-.12,2.11-1.27,2.11h-7.11c-.66,0-1.14-.42-1.39-1.2l-2.83-8.56h-15.73l-2.77,8.56ZM338.53,23.82h-.18l-5.18,15.91h10.67l-5.31-15.91Z"/>
    <path class="cls-1" d="M362.43,57.1c-.78,0-1.39-.6-1.39-1.39v-4.16c0-.9.42-1.45.84-1.93l20.85-26.7h-19.05c-.78,0-1.39-.66-1.39-1.33v-5.3c0-.72.6-1.39,1.39-1.39h29.53c.72,0,1.33.66,1.33,1.39v4.94c0,.66-.18,1.2-.6,1.69l-20.19,26.16h20.91c.72,0,1.33.6,1.33,1.33v5.31c0,.78-.6,1.39-1.33,1.39h-32.25Z"/>
  </g>
  <g>
    <path class="cls-2" d="M72,36c0,.65-.02,1.3-.05,1.94,0,.05,0,.09,0,.14-.04.78-.11,1.55-.21,2.31-1.99,16.37-14.97,29.36-31.35,31.35-.74.09-1.48.16-2.24.2-.07,0-.14,0-.21.01-.64.03-1.29.05-1.94.05C16.12,72,0,55.88,0,36S16.12,0,36,0s36,16.12,36,36Z"/>
    <path class="cls-3" d="M59.49,41.25c-.81,1.49-1.97,2.9-3.44,4.19-1.18,1.04-2.55,1.98-4.07,2.8.69-2.02,1.21-4.17,1.54-6.38,2.13-.49,4.47-1.19,6.26-2.15-.08.52-.18,1.03-.29,1.54ZM41.25,59.49c-.51.11-1.02.21-1.54.29.96-1.79,1.66-4.14,2.15-6.26,2.22-.33,4.36-.84,6.38-1.54-.83,1.52-1.76,2.89-2.8,4.07-1.29,1.47-2.69,2.62-4.19,3.44ZM30.75,59.49c-1.49-.81-2.9-1.97-4.19-3.44-1.04-1.18-1.98-2.55-2.8-4.07,2.02.69,4.17,1.21,6.38,1.54.49,2.13,1.19,4.47,2.15,6.26-.52-.08-1.03-.18-1.54-.29ZM12.51,41.25c-.11-.51-.21-1.02-.29-1.54,1.79.96,4.14,1.66,6.26,2.15.33,2.22.84,4.36,1.54,6.38-1.52-.83-2.89-1.76-4.07-2.8-1.47-1.29-2.62-2.69-3.44-4.19ZM12.51,30.75c.81-1.49,1.97-2.9,3.44-4.19,1.18-1.04,2.55-1.98,4.07-2.8-.69,2.02-1.21,4.17-1.54,6.38-2.13.49-4.47,1.19-6.26,2.15.08-.52.18-1.03.29-1.54ZM30.75,12.51c.51-.11,1.02-.21,1.54-.29-.96,1.79-1.66,4.14-2.15,6.26-2.22.33-4.36.84-6.38,1.54.83-1.52,1.76-2.89,2.8-4.07,1.29-1.47,2.69-2.62,4.19-3.44ZM41.25,12.51c1.49.81,2.9,1.97,4.19,3.44,1.04,1.18,1.98,2.55,2.8,4.07-2.02-.69-4.17-1.21-6.38-1.54-.49-2.13-1.19-4.47-2.15-6.26.52.08,1.03.18,1.54.29ZM59.49,30.75c.11.51.21,1.02.29,1.54-1.79-.96-4.14-1.66-6.26-2.15-.33-2.22-.84-4.36-1.54-6.38,1.52.83,2.89,1.76,4.07,2.8,1.47,1.29,2.62,2.69,3.44,4.19ZM51.69,40.26c-2.5.5-5.28.87-8.25,1.1.09-1.74.14-3.53.14-5.36s-.05-3.61-.14-5.36c2.96.23,5.74.6,8.25,1.1.03,0,.05.01.08.02.15,1.39.23,2.81.23,4.24s-.08,2.85-.23,4.24c-.03,0-.05.01-.08.02ZM20.23,40.24c-.15-1.39-.23-2.81-.23-4.24s.08-2.85.23-4.24c.03,0,.05-.01.08-.02,2.5-.5,5.28-.87,8.25-1.1-.09,1.74-.14,3.53-.14,5.36s.05,3.61.14,5.36c-2.96-.23-5.74-.6-8.25-1.1-.03,0-.05-.01-.08-.02ZM11.94,36c0-.42.01-.83.03-1.24.64-.52,1.62-1.04,2.86-1.51.99-.38,2.13-.73,3.41-1.05-.12,1.25-.18,2.52-.18,3.8s.06,2.55.18,3.8c-1.28-.32-2.42-.67-3.41-1.05-1.24-.47-2.22-.99-2.86-1.51-.02-.41-.03-.83-.03-1.24ZM30.36,36c0-1.87.05-3.7.15-5.49,1.78-.1,3.62-.15,5.49-.15s3.7.05,5.49.15c.1,1.78.15,3.62.15,5.49s-.05,3.7-.15,5.49c-1.78.1-3.62.15-5.49.15s-3.7-.05-5.49-.15c-.1-1.78-.15-3.62-.15-5.49ZM53.76,32.2c1.28.32,2.42.67,3.41,1.05,1.24.47,2.22.99,2.86,1.51.02.41.03.83.03,1.24s-.01.83-.03,1.24c-.64.52-1.62,1.04-2.86,1.51-.99.38-2.13.73-3.41,1.05.12-1.25.18-2.52.18-3.8s-.06-2.55-.18-3.8ZM49.45,22.55c.93,2.23,1.61,4.64,2.04,7.17-2.5-.47-5.25-.82-8.17-1.04-.22-2.92-.56-5.67-1.04-8.17,2.53.42,4.94,1.11,7.17,2.04ZM40.26,20.31c.5,2.5.87,5.28,1.1,8.25-1.74-.09-3.53-.14-5.36-.14s-3.61.05-5.36.14c.23-2.96.6-5.74,1.1-8.25,0-.03.01-.05.02-.08,1.39-.15,2.81-.23,4.24-.23s2.85.08,4.24.23c0,.03.01.05.02.08ZM28.69,28.69c-2.92.22-5.67.56-8.17,1.04.42-2.53,1.11-4.94,2.04-7.17,2.23-.93,4.64-1.61,7.17-2.04-.47,2.5-.82,5.25-1.04,8.17ZM22.55,49.45c-.93-2.23-1.61-4.64-2.04-7.17,2.5.47,5.25.82,8.17,1.04.22,2.92.56,5.67,1.04,8.17-2.53-.42-4.94-1.11-7.17-2.04ZM31.74,51.69c-.5-2.5-.87-5.28-1.1-8.25,1.74.09,3.53.14,5.36.14s3.61-.05,5.36-.14c-.23,2.96-.6,5.74-1.1,8.25,0,.03-.01.05-.02.08-1.39.15-2.81.23-4.24.23s-2.85-.08-4.24-.23c0-.03-.01-.05-.02-.08ZM43.31,43.31c2.92-.22,5.67-.56,8.17-1.04-.42,2.53-1.11,4.94-2.04,7.17-2.23.93-4.64,1.61-7.17,2.04.47-2.5.82-5.25,1.04-8.17ZM57.56,25.31c-.07-.07-.15-.13-.23-.2-1.64-1.44-3.59-2.7-5.8-3.75-.2-.1-.4-.19-.61-.28-.09-.2-.18-.41-.28-.61-1.05-2.21-2.31-4.16-3.75-5.8-.07-.08-.13-.15-.2-.23,2.34,1.16,4.46,2.68,6.32,4.55,1.86,1.86,3.39,3.98,4.55,6.32ZM37.24,11.97c.52.64,1.04,1.62,1.51,2.86.38.99.73,2.13,1.05,3.41-1.25-.12-2.52-.18-3.8-.18s-2.55.06-3.8.18c.32-1.28.67-2.42,1.05-3.41.47-1.24.99-2.22,1.51-2.86.41-.02.83-.03,1.24-.03s.83.01,1.24.03ZM18.99,18.99c1.86-1.86,3.98-3.39,6.32-4.55-.07.07-.13.15-.2.23-1.44,1.64-2.7,3.59-3.75,5.8-.1.2-.19.4-.28.61-.2.09-.41.18-.61.28-2.21,1.05-4.16,2.31-5.8,3.75-.08.07-.15.13-.23.2,1.16-2.34,2.68-4.46,4.55-6.32ZM14.44,46.69c.07.07.15.13.23.2,1.64,1.44,3.59,2.7,5.8,3.75.2.1.4.19.61.28.09.2.18.41.28.61,1.05,2.21,2.31,4.16,3.75,5.8.07.08.13.15.2.23-2.34-1.16-4.46-2.68-6.32-4.55-1.86-1.86-3.39-3.98-4.55-6.32ZM34.76,60.03c-.52-.64-1.04-1.62-1.51-2.86-.38-.99-.73-2.13-1.05-3.41,1.25.12,2.52.18,3.8.18s2.55-.06,3.8-.18c-.32,1.28-.67,2.42-1.05,3.41-.47,1.24-.99,2.22-1.51,2.86-.41.02-.83.03-1.24.03s-.83-.01-1.24-.03ZM53.01,53.01c-1.86,1.86-3.98,3.39-6.32,4.55.07-.07.13-.15.2-.23,1.44-1.64,2.7-3.59,3.75-5.8.1-.2.19-.4.28-.61.2-.09.41-.18.61-.28,2.21-1.05,4.16-2.31,5.8-3.75.08-.07.15-.13.23-.2-1.16,2.34-2.68,4.46-4.55,6.32Z"/>
  </g>
</svg>